<mxfile host="app.diagrams.net" modified="2024-05-28T19:03:32.811Z" agent="Mozilla/5.0 (Windows NT 10.0; Win64; x64) AppleWebKit/537.36 (KHTML, like Gecko) Chrome/125.0.0.0 Safari/537.36" etag="T4TScA1CtUDWuHbqxRPL" version="24.4.9" type="device">
  <diagram name="PÃ¡gina-1" id="vs8G0ycHI_nlqAo7tIAj">
    <mxGraphModel dx="880" dy="434" grid="1" gridSize="10" guides="1" tooltips="1" connect="1" arrows="1" fold="1" page="1" pageScale="1" pageWidth="827" pageHeight="1169" math="0" shadow="0">
      <root>
        <mxCell id="0" />
        <mxCell id="1" parent="0" />
        <mxCell id="8cb2-rLWREw1tZiuKIuD-1" value="prerequisito" style="swimlane;childLayout=stackLayout;horizontal=1;startSize=50;horizontalStack=0;rounded=1;fontSize=14;fontStyle=0;strokeWidth=2;resizeParent=0;resizeLast=1;shadow=0;dashed=0;align=center;arcSize=4;whiteSpace=wrap;html=1;" vertex="1" parent="1">
          <mxGeometry x="334" y="510" width="160" height="120" as="geometry" />
        </mxCell>
        <mxCell id="8cb2-rLWREw1tZiuKIuD-2" value="idpre-requisito:int&lt;div&gt;iddisciplina: int(fk)&lt;/div&gt;&lt;div&gt;iddepartamento(fk)&lt;/div&gt;" style="align=left;strokeColor=none;fillColor=none;spacingLeft=4;fontSize=12;verticalAlign=top;resizable=0;rotatable=0;part=1;html=1;" vertex="1" parent="8cb2-rLWREw1tZiuKIuD-1">
          <mxGeometry y="50" width="160" height="70" as="geometry" />
        </mxCell>
        <mxCell id="8cb2-rLWREw1tZiuKIuD-3" value="departamento" style="swimlane;childLayout=stackLayout;horizontal=1;startSize=50;horizontalStack=0;rounded=1;fontSize=14;fontStyle=0;strokeWidth=2;resizeParent=0;resizeLast=1;shadow=0;dashed=0;align=center;arcSize=4;whiteSpace=wrap;html=1;" vertex="1" parent="1">
          <mxGeometry x="80" y="510" width="160" height="120" as="geometry" />
        </mxCell>
        <mxCell id="8cb2-rLWREw1tZiuKIuD-4" value="iddepartamento:int&lt;div&gt;nome:varchar(40)&lt;/div&gt;" style="align=left;strokeColor=none;fillColor=none;spacingLeft=4;fontSize=12;verticalAlign=top;resizable=0;rotatable=0;part=1;html=1;" vertex="1" parent="8cb2-rLWREw1tZiuKIuD-3">
          <mxGeometry y="50" width="160" height="70" as="geometry" />
        </mxCell>
        <mxCell id="8cb2-rLWREw1tZiuKIuD-5" value="disciplina" style="swimlane;childLayout=stackLayout;horizontal=1;startSize=50;horizontalStack=0;rounded=1;fontSize=14;fontStyle=0;strokeWidth=2;resizeParent=0;resizeLast=1;shadow=0;dashed=0;align=center;arcSize=4;whiteSpace=wrap;html=1;" vertex="1" parent="1">
          <mxGeometry x="80" y="350" width="160" height="120" as="geometry" />
        </mxCell>
        <mxCell id="8cb2-rLWREw1tZiuKIuD-6" value="iddisciplina:int&lt;div&gt;nome:varchar(40)&lt;/div&gt;" style="align=left;strokeColor=none;fillColor=none;spacingLeft=4;fontSize=12;verticalAlign=top;resizable=0;rotatable=0;part=1;html=1;" vertex="1" parent="8cb2-rLWREw1tZiuKIuD-5">
          <mxGeometry y="50" width="160" height="70" as="geometry" />
        </mxCell>
        <mxCell id="8cb2-rLWREw1tZiuKIuD-7" value="curso" style="swimlane;childLayout=stackLayout;horizontal=1;startSize=50;horizontalStack=0;rounded=1;fontSize=14;fontStyle=0;strokeWidth=2;resizeParent=0;resizeLast=1;shadow=0;dashed=0;align=center;arcSize=4;whiteSpace=wrap;html=1;" vertex="1" parent="1">
          <mxGeometry x="80" y="190" width="160" height="120" as="geometry" />
        </mxCell>
        <mxCell id="8cb2-rLWREw1tZiuKIuD-8" value="idcurso:int&lt;div&gt;nome:varchar(40)&lt;/div&gt;" style="align=left;strokeColor=none;fillColor=none;spacingLeft=4;fontSize=12;verticalAlign=top;resizable=0;rotatable=0;part=1;html=1;" vertex="1" parent="8cb2-rLWREw1tZiuKIuD-7">
          <mxGeometry y="50" width="160" height="70" as="geometry" />
        </mxCell>
        <mxCell id="8cb2-rLWREw1tZiuKIuD-9" value="aluno" style="swimlane;childLayout=stackLayout;horizontal=1;startSize=50;horizontalStack=0;rounded=1;fontSize=14;fontStyle=0;strokeWidth=2;resizeParent=0;resizeLast=1;shadow=0;dashed=0;align=center;arcSize=4;whiteSpace=wrap;html=1;" vertex="1" parent="1">
          <mxGeometry x="80" y="20" width="160" height="120" as="geometry" />
        </mxCell>
        <mxCell id="8cb2-rLWREw1tZiuKIuD-10" value="idaluno:int&lt;div&gt;nome: varchar(40)&lt;/div&gt;" style="align=left;strokeColor=none;fillColor=none;spacingLeft=4;fontSize=12;verticalAlign=top;resizable=0;rotatable=0;part=1;html=1;" vertex="1" parent="8cb2-rLWREw1tZiuKIuD-9">
          <mxGeometry y="50" width="160" height="70" as="geometry" />
        </mxCell>
        <mxCell id="8cb2-rLWREw1tZiuKIuD-11" style="edgeStyle=orthogonalEdgeStyle;rounded=0;orthogonalLoop=1;jettySize=auto;html=1;entryX=0.5;entryY=0;entryDx=0;entryDy=0;" edge="1" parent="1" source="8cb2-rLWREw1tZiuKIuD-10" target="8cb2-rLWREw1tZiuKIuD-7">
          <mxGeometry relative="1" as="geometry" />
        </mxCell>
        <mxCell id="8cb2-rLWREw1tZiuKIuD-12" style="edgeStyle=orthogonalEdgeStyle;rounded=0;orthogonalLoop=1;jettySize=auto;html=1;entryX=0.5;entryY=0;entryDx=0;entryDy=0;" edge="1" parent="1" source="8cb2-rLWREw1tZiuKIuD-8" target="8cb2-rLWREw1tZiuKIuD-5">
          <mxGeometry relative="1" as="geometry" />
        </mxCell>
        <mxCell id="8cb2-rLWREw1tZiuKIuD-13" style="edgeStyle=orthogonalEdgeStyle;rounded=0;orthogonalLoop=1;jettySize=auto;html=1;exitX=1;exitY=0;exitDx=0;exitDy=0;entryX=0;entryY=0.25;entryDx=0;entryDy=0;" edge="1" parent="1" source="8cb2-rLWREw1tZiuKIuD-4" target="8cb2-rLWREw1tZiuKIuD-1">
          <mxGeometry relative="1" as="geometry" />
        </mxCell>
        <mxCell id="8cb2-rLWREw1tZiuKIuD-14" style="edgeStyle=orthogonalEdgeStyle;rounded=0;orthogonalLoop=1;jettySize=auto;html=1;exitX=0.5;exitY=1;exitDx=0;exitDy=0;entryX=0.5;entryY=0;entryDx=0;entryDy=0;" edge="1" parent="1" source="8cb2-rLWREw1tZiuKIuD-6" target="8cb2-rLWREw1tZiuKIuD-3">
          <mxGeometry relative="1" as="geometry" />
        </mxCell>
        <mxCell id="8cb2-rLWREw1tZiuKIuD-15" value="1;1" style="text;html=1;align=center;verticalAlign=middle;resizable=0;points=[];autosize=1;strokeColor=none;fillColor=none;" vertex="1" parent="1">
          <mxGeometry x="160" y="148" width="40" height="30" as="geometry" />
        </mxCell>
        <mxCell id="8cb2-rLWREw1tZiuKIuD-16" value="1;n" style="text;html=1;align=center;verticalAlign=middle;resizable=0;points=[];autosize=1;strokeColor=none;fillColor=none;" vertex="1" parent="1">
          <mxGeometry x="170" y="308" width="40" height="30" as="geometry" />
        </mxCell>
        <mxCell id="8cb2-rLWREw1tZiuKIuD-17" value="1;1" style="text;html=1;align=center;verticalAlign=middle;resizable=0;points=[];autosize=1;strokeColor=none;fillColor=none;" vertex="1" parent="1">
          <mxGeometry x="165" y="480" width="40" height="30" as="geometry" />
        </mxCell>
        <mxCell id="8cb2-rLWREw1tZiuKIuD-18" value="1;n" style="text;html=1;align=center;verticalAlign=middle;resizable=0;points=[];autosize=1;strokeColor=none;fillColor=none;" vertex="1" parent="1">
          <mxGeometry x="270" y="518" width="40" height="30" as="geometry" />
        </mxCell>
      </root>
    </mxGraphModel>
  </diagram>
</mxfile>
